<svg width="53" height="48" viewBox="0 0 53 48" fill="none" xmlns="http://www.w3.org/2000/svg">
<path fill-rule="evenodd" clip-rule="evenodd" d="M45.5986 16.6997C44.9853 15.2637 44.304 13.6686 41.4619 14.6453V6.89655C41.4619 2.89523 34.7152 0 26.4956 0C18.276 0 11.5293 2.89523 11.5293 6.89655V41.1034C11.5293 45.1048 18.276 48 26.4956 48C34.7152 48 41.4619 45.1048 41.4619 41.1034V20.4599C43.9972 20.7935 44.5442 22.7863 44.0707 24.8474L46.6796 25.2612C47.2648 21.4816 45.979 18.9679 41.4619 18.7711V17.1948C43.1976 16.3589 44.2588 17.7252 45.3468 19.1262C46.2391 20.275 47.1494 21.4471 48.4645 21.4471C50.3868 21.4471 51.8972 20.4816 52.9956 18.5505L50.6614 15.3781C50.2037 17.4931 49.1053 18.5505 47.3661 18.5505C46.3891 18.5505 46.0091 17.6607 45.5986 16.6997ZM30.4854 25.737C29.1549 25.4131 27.787 25.0801 26.4405 25.0801C25.0725 25.0801 23.6903 25.42 22.3507 25.7494C18.8533 26.6094 15.6466 27.398 13.7408 21.879C11.4162 15.1465 16.7229 16.6302 21.5615 17.9829C23.4389 18.5078 25.2459 19.013 26.5092 19.0109C27.7233 19.0088 29.4665 18.5356 31.2892 18.0407L31.2892 18.0407C36.0861 16.7385 41.4341 15.2867 39.1405 21.879C37.227 27.378 33.9853 26.5889 30.4854 25.737ZM19.7613 20.7469C19.1719 20.4767 18.5884 20.2286 18.0377 20.049C17.9608 21.0237 18.3813 21.9303 19.3194 22.8138C20.1383 23.585 20.91 23.675 21.7375 23.0086C22.0102 22.7081 22.2464 22.369 22.4462 21.9914C22.1096 21.8503 21.7591 21.6901 21.4012 21.5219C21.4105 21.5796 21.4153 21.6387 21.4153 21.699C21.4153 22.3085 20.9235 22.8025 20.3169 22.8025C19.7102 22.8025 19.2184 22.3085 19.2184 21.699C19.2184 21.2932 19.4365 20.9386 19.7613 20.7469ZM14.8246 21.0094C15.1791 19.9412 15.9646 19.6619 16.9593 19.7909C16.7916 21.1648 17.3356 22.458 18.5682 23.6188C18.9234 23.9533 19.2826 24.1983 19.6434 24.3556C19.067 24.5544 18.4219 24.6804 17.7081 24.7335C20.4988 25.2592 22.5002 24.4911 23.7123 22.4292C24.8763 22.7109 25.6718 22.4358 25.6718 20.8715C25.2665 22.4999 23.4209 21.3818 21.36 20.1332C18.5331 18.4205 15.3011 16.4624 14.8246 21.0094ZM31.5824 21.4993C31.2211 21.6858 30.867 21.8604 30.5253 22.0068C30.7259 22.3874 30.9635 22.7288 31.2378 23.0312C32.0654 23.6977 32.837 23.6076 33.6559 22.8364C34.6381 21.9114 35.0529 20.9611 34.9236 19.9339C34.3308 20.111 33.7127 20.3947 33.094 20.7084C33.484 20.8778 33.7569 21.2677 33.7569 21.7217C33.7569 22.3311 33.2652 22.8251 32.6585 22.8251C32.0518 22.8251 31.56 22.3311 31.56 21.7217C31.56 21.6455 31.5677 21.5712 31.5824 21.4993ZM27.5672 21.7217C27.982 22.3328 28.5583 22.4964 29.2345 22.4028C30.4436 24.5015 32.4545 25.286 35.2673 24.7562C34.5535 24.7031 33.9084 24.5771 33.332 24.3782C33.6927 24.2209 34.052 23.976 34.4072 23.6414C35.6602 22.4614 36.2016 21.1444 36.0071 19.745C36.8455 19.7257 37.5892 20.0648 38.1507 21.032C37.6167 16.0912 34.5591 18.0921 31.7061 19.959C30.099 21.0107 28.5567 22.0199 27.5672 21.7217ZM27.018 19.6527C27.018 20.4218 27.4299 21.032 28.1164 21.17C27.4299 21.3079 26.606 20.7562 27.018 19.6527ZM39.5397 6.89655C39.5397 9.59882 33.7448 12.1379 26.4956 12.1379C19.2465 12.1379 13.4516 9.59882 13.4516 6.89655C13.4516 4.19428 19.2465 1.65517 26.4956 1.65517C33.7448 1.65517 39.5397 4.19428 39.5397 6.89655Z" fill="#1D1D1F"/>
<ellipse cx="26.4963" cy="6.89632" rx="6.45337" ry="2.75862" fill="#FF6633"/>
</svg>
