<svg width="18" height="21" viewBox="0 0 18 21" fill="none" xmlns="http://www.w3.org/2000/svg">
<path fill-rule="evenodd" clip-rule="evenodd" d="M7.24547 9.76047C6.88089 9.76047 6.59261 10.0901 6.59261 10.5069C6.59261 10.9141 6.88089 11.2534 7.24547 11.2534H12.3327V15.8874C12.3327 18.2625 10.6454 20.2014 8.55967 20.2014H4.43055C2.35327 20.2014 0.666016 18.2722 0.666016 15.8971V5.12653C0.666016 2.74169 2.36175 0.8125 4.43903 0.8125H8.57663C10.6454 0.8125 12.3327 2.74169 12.3327 5.11683V9.76047H7.24547ZM15.358 7.15215L17.7913 9.97323C17.9163 10.1186 17.983 10.3028 17.983 10.5064C17.983 10.7003 17.9163 10.8942 17.7913 11.0299L15.358 13.851C15.233 13.9964 15.0663 14.074 14.908 14.074C14.7413 14.074 14.5747 13.9964 14.4497 13.851C14.1997 13.5602 14.1997 13.0851 14.4497 12.7943L15.783 11.2529H12.333V9.75995H15.783L14.4497 8.21854C14.1997 7.9277 14.1997 7.45268 14.4497 7.16184C14.6997 6.86131 15.108 6.86131 15.358 7.15215Z" fill="#06152B"/>
</svg>
