<svg width="20" height="24" viewBox="0 0 20 24" fill="none" xmlns="http://www.w3.org/2000/svg">
<path fill-rule="evenodd" clip-rule="evenodd" d="M15.1797 3.2968C15.1797 1.74956 16.2597 0.493164 17.5897 0.493164C18.9197 0.493164 19.9997 1.74956 19.9997 3.2968C19.9997 4.84403 18.9197 6.10043 17.5897 6.10043C16.2597 6.10043 15.1797 4.84403 15.1797 3.2968ZM11.33 15.3365L14.22 10.9984L14.18 11.0216C14.34 10.7657 14.37 10.44 14.26 10.1491C14.151 9.85831 13.91 9.66055 13.651 9.63728C13.38 9.60238 13.111 9.74198 12.95 9.99792L10.531 13.6391L7.76 11.1031C7.59 10.9518 7.39 10.8925 7.19 10.9169C6.991 10.9518 6.811 11.0787 6.69 11.2648L3.731 15.7448L3.67 15.8495C3.5 16.2206 3.58 16.6976 3.88 16.9546C4.02 17.0593 4.17 17.1291 4.34 17.1291C4.571 17.1408 4.79 17 4.93 16.7801L7.44 13.0214L10.29 15.5121L10.38 15.5808C10.7 15.7785 11.1 15.6866 11.33 15.3365ZM13.45 2.56422C13.41 2.85505 13.39 3.14588 13.39 3.43672C13.39 6.05422 15.21 8.17032 17.45 8.17032C17.7 8.17032 17.94 8.13658 18.19 8.09005V17.477C18.19 21.4218 16.19 23.7601 12.79 23.7601H5.401C2 23.7601 0 21.4218 0 17.477V8.86948C0 4.91415 2 2.56422 5.401 2.56422H13.45Z" fill="#06152B"/>
</svg>
