<svg width="18" height="24" viewBox="0 0 18 24" fill="none" xmlns="http://www.w3.org/2000/svg">
<path fill-rule="evenodd" clip-rule="evenodd" d="M15.7071 8.21939C15.7071 9.68045 16.039 10.5416 16.7695 11.534C17.3231 12.2651 17.5 13.2036 17.5 14.2218C17.5 15.2388 17.2128 16.2043 16.6373 16.9881C15.884 17.9278 14.8215 18.5277 13.7372 18.632C12.1659 18.7878 10.5937 18.919 9.0005 18.919C7.40634 18.919 5.83505 18.8405 4.26375 18.632C3.17846 18.5277 2.11602 17.9278 1.36367 16.9881C0.78822 16.2043 0.5 15.2388 0.5 14.2218C0.5 13.2036 0.677901 12.2651 1.23049 11.534C1.98384 10.5416 2.29392 9.68045 2.29392 8.21939V7.72377C2.29392 5.76709 2.71333 4.48763 3.577 3.23512C4.86106 1.4085 6.91935 0.312988 8.95577 0.312988H9.04522C11.1254 0.312988 13.2502 1.46122 14.5125 3.36635C15.3314 4.59308 15.7071 5.81864 15.7071 7.72377V8.21939ZM6.07324 21.3236C6.07324 20.7377 6.53539 20.4694 6.96275 20.3546C7.46266 20.2316 10.5088 20.2316 11.0088 20.3546C11.4361 20.4694 11.8983 20.7377 11.8983 21.3236C11.8734 21.8813 11.5922 22.3757 11.2036 22.6897C10.6997 23.1467 10.1083 23.4361 9.49014 23.5404C9.14825 23.5919 8.81232 23.5931 8.48236 23.5404C7.86319 23.4361 7.27184 23.1467 6.76895 22.6886C6.37935 22.3757 6.09809 21.8813 6.07324 21.3236Z" fill="#06152B"/>
</svg>
