<svg width="20" height="24" viewBox="0 0 20 24" fill="none" xmlns="http://www.w3.org/2000/svg">
<path fill-rule="evenodd" clip-rule="evenodd" d="M18.4023 13.6047C18.76 13.8257 19.036 14.1747 19.2301 14.5237C19.6083 15.245 19.5776 16.1291 19.2097 16.9086L18.4943 18.3046C18.1162 19.0491 17.411 19.5144 16.6855 19.5144C16.3278 19.5144 15.9292 19.3981 15.6022 19.1654C15.3365 18.9677 15.0299 18.8979 14.7029 18.8979C13.6911 18.8979 12.8429 19.8634 12.8122 21.0151C12.8122 22.353 11.872 23.4 10.6968 23.4H9.30692C8.12145 23.4 7.18125 22.353 7.18125 21.0151C7.16081 19.8634 6.31259 18.8979 5.30085 18.8979C4.96361 18.8979 4.65702 18.9677 4.40153 19.1654C4.0745 19.3981 3.66572 19.5144 3.31825 19.5144C2.58245 19.5144 1.87729 19.0491 1.49917 18.3046L0.79402 16.9086C0.415896 16.1524 0.395456 15.245 0.773581 14.5237C0.937094 14.1747 1.24368 13.8257 1.59115 13.6047C1.87729 13.4418 2.06125 13.1743 2.23498 12.8602C2.74596 11.8597 2.43937 10.5451 1.57071 9.95183C0.55897 9.28873 0.231943 7.8113 0.814459 6.6596L1.49917 5.28687C2.09191 4.13517 3.35913 3.728 4.38109 4.40273C5.27019 4.96113 6.425 4.58887 6.9462 3.60003C7.10972 3.2743 7.20169 2.9253 7.18125 2.5763C7.16081 2.1226 7.27323 1.69217 7.4674 1.34317C7.84553 0.621901 8.53024 0.156567 9.27627 0.133301H10.7172C11.4735 0.133301 12.1582 0.621901 12.5363 1.34317C12.7203 1.69217 12.8429 2.1226 12.8122 2.5763C12.7918 2.9253 12.8838 3.2743 13.0473 3.60003C13.5685 4.58887 14.7233 4.96113 15.6226 4.40273C16.6344 3.728 17.9118 4.13517 18.4943 5.28687L19.179 6.6596C19.7718 7.8113 19.4447 9.28873 18.4228 9.95183C17.5541 10.5451 17.2475 11.8597 17.7687 12.8602C17.9322 13.1743 18.1162 13.4418 18.4023 13.6047ZM7.10938 11.7664C7.10938 13.5928 8.40726 15.047 10.0117 15.047C11.6162 15.047 12.8834 13.5928 12.8834 11.7664C12.8834 9.93997 11.6162 8.47417 10.0117 8.47417C8.40726 8.47417 7.10938 9.93997 7.10938 11.7664Z" fill="#828282"/>
</svg>
